{
  "accessors": [
    {
      "bufferView": 2,
      "componentType": 5126,
      "count": 1132,
      "max": [
        1.0005584955215454,
        1.0000001192092896,
        1.818311095237732
      ],
      "min": [
        -1.0005584955215454,
        -1.023942470550537,
        -1.0
      ],
      "type": "VEC3"
    },
    {
      "bufferView": 2,
      "byteOffset": 13584,
      "componentType": 5126,
      "count": 1132,
      "max": [
        0.9982745051383972,
        0.9998455047607422,
        1.0
      ],
      "min": [
        -0.9996865391731262,
        -0.9988675713539124,
        -1.0
      ],
      "type": "VEC3"
    },
    {
      "bufferView": 1,
      "componentType": 5126,
      "count": 1132,
      "max": [
        0.9673243761062622,
        0.93360435962677
      ],
      "min": [
        0.0,
        0.06639567017555237
      ],
      "type": "VEC2"
    },
    {
      "bufferView": 0,
      "componentType": 5125,
      "count": 4056,
      "type": "SCALAR"
    },
    {
      "bufferView": 2,
      "byteOffset": 27168,
      "componentType": 5126,
      "count": 13671,
      "max": [
        1.0,
        0.00848163291811943,
        1.0
      ],
      "min": [
        -1.0,
        -0.008481579832732677,
        -1.0
      ],
      "type": "VEC3"
    },
    {
      "bufferView": 2,
      "byteOffset": 191220,
      "componentType": 5126,
      "count": 13671,
      "max": [
        0.2296568602323532,
        1.0,
        0.21775564551353455
      ],
      "min": [
        -0.06675177812576294,
        0.9628047347068787,
        -0.01298863161355257
      ],
      "type": "VEC3"
    },
    {
      "bufferView": 1,
      "byteOffset": 9056,
      "componentType": 5126,
      "count": 13671,
      "max": [
        1.0000001192092896,
        1.003160834312439
      ],
      "min": [
        0.0,
        -0.00399097241461277
      ],
      "type": "VEC2"
    },
    {
      "bufferView": 0,
      "byteOffset": 16224,
      "componentType": 5125,
      "count": 32376,
      "type": "SCALAR"
    }
  ],
  "asset": {
    "extras": {
      "author": "Hasan Ajami (https://sketchfab.com/hasan.ajami2002)",
      "license": "CC-BY-4.0 (http://creativecommons.org/licenses/by/4.0/)",
      "source": "https://sketchfab.com/3d-models/booster-pack-tcg-pack-3b9affa6b3d647fdb35487ee7bc34525",
      "title": "Booster Pack (TCG Pack)"
    },
    "generator": "Sketchfab-15.37.0",
    "version": "2.0"
  },
  "bufferViews": [
    {
      "buffer": 0,
      "byteLength": 145728,
      "name": "floatBufferViews",
      "target": 34963
    },
    {
      "buffer": 0,
      "byteLength": 118424,
      "byteOffset": 145728,
      "byteStride": 8,
      "name": "floatBufferViews",
      "target": 34962
    },
    {
      "buffer": 0,
      "byteLength": 355272,
      "byteOffset": 264152,
      "byteStride": 12,
      "name": "floatBufferViews",
      "target": 34962
    }
  ],
  "buffers": [
    {
      "byteLength": 619424,
      "uri": "scene.bin"
    }
  ],
  "materials": [
    {
      "doubleSided": true,
      "name": "Material.001",
      "pbrMetallicRoughness": {
        "metallicFactor": 0.9,
        "roughnessFactor": 0.187
      }
    },
    {
      "doubleSided": true,
      "name": "Material.003",
      "pbrMetallicRoughness": {
        "metallicFactor": 0.0,
        "roughnessFactor": 0.5
      }
    }
  ],
  "meshes": [
    {
      "name": "Object_0",
      "primitives": [
        {
          "attributes": {
            "NORMAL": 1,
            "POSITION": 0,
            "TEXCOORD_0": 2
          },
          "indices": 3,
          "material": 0,
          "mode": 4
        }
      ]
    },
    {
      "name": "Object_1",
      "primitives": [
        {
          "attributes": {
            "NORMAL": 5,
            "POSITION": 4,
            "TEXCOORD_0": 6
          },
          "indices": 7,
          "material": 1,
          "mode": 4
        }
      ]
    }
  ],
  "nodes": [
    {
      "children": [
        1
      ],
      "matrix": [
        1.0,
        0.0,
        0.0,
        0.0,
        0.0,
        2.220446049250313e-16,
        -1.0,
        0.0,
        0.0,
        1.0,
        2.220446049250313e-16,
        0.0,
        0.0,
        0.0,
        0.0,
        1.0
      ],
      "name": "Sketchfab_model"
    },
    {
      "children": [
        2
      ],
      "name": "root"
    },
    {
      "children": [
        3,
        5
      ],
      "matrix": [
        1.0,
        0.0,
        0.0,
        0.0,
        0.0,
        2.220446049250313e-16,
        1.0,
        0.0,
        0.0,
        -1.0,
        2.220446049250313e-16,
        0.0,
        0.0,
        0.0,
        0.0,
        1.0
      ],
      "name": "GLTF_SceneRootNode"
    },
    {
      "children": [
        4
      ],
      "matrix": [
        2.0325770378112793,
        0.0,
        0.0,
        0.0,
        0.0,
        3.269461154937744,
        0.0,
        0.0,
        0.0,
        0.0,
        0.08804485946893692,
        0.0,
        0.0,
        0.0,
        0.0,
        1.0
      ],
      "name": "Cube_2"
    },
    {
      "mesh": 0,
      "name": "Object_4"
    },
    {
      "children": [
        6
      ],
      "matrix": [
        1.5609384775161743,
        0.0,
        0.0,
        0.0,
        0.0,
        0.0,
        1.5609384775161743,
        0.0,
        0.0,
        -2.2940428256988525,
        0.0,
        0.0,
        0.0,
        0.0,
        0.11172682791948318,
        1.0
      ],
      "name": "Plane_3"
    },
    {
      "mesh": 1,
      "name": "Object_6"
    }
  ],
  "scene": 0,
  "scenes": [
    {
      "name": "Sketchfab_Scene",
      "nodes": [
        0
      ]
    }
  ]
}
